<svg xmlns="http://www.w3.org/2000/svg" viewBox="0 0 640 640" role="img" aria-labelledby="title desc">
  <title id="title">MiaoTarot 收款码占位图</title>
  <desc id="desc">用于等待替换正式收款二维码的占位图</desc>
  <rect width="640" height="640" rx="56" fill="#fffaf4"/>
  <rect x="28" y="28" width="584" height="584" rx="40" fill="none" stroke="#d9cdec" stroke-width="8" stroke-dasharray="18 18"/>
  <g fill="none" stroke="#8a6ac8" stroke-width="18" stroke-linecap="round" stroke-linejoin="round">
    <path d="M156 226v-70h70"/>
    <path d="M414 156h70v70"/>
    <path d="M484 414v70h-70"/>
    <path d="M226 484h-70v-70"/>
  </g>
  <g transform="translate(320 292)">
    <path d="M-88 2c-22-72 12-126 88-126S110-70 88 2c48 20 61 73 27 113-29 34-67 45-115 45s-86-11-115-45c-34-40-21-93 27-113Z" fill="#f2e9ff" stroke="#8a6ac8" stroke-width="10"/>
    <circle cx="-37" cy="14" r="9" fill="#594177"/>
    <circle cx="37" cy="14" r="9" fill="#594177"/>
    <path d="M-13 48c9 8 17 8 26 0" fill="none" stroke="#594177" stroke-width="8" stroke-linecap="round"/>
  </g>
  <text x="320" y="520" text-anchor="middle" fill="#594177" font-family="-apple-system, BlinkMacSystemFont, 'Segoe UI', sans-serif" font-size="32" font-weight="700">收款码占位</text>
  <text x="320" y="562" text-anchor="middle" fill="#8b7c96" font-family="-apple-system, BlinkMacSystemFont, 'Segoe UI', sans-serif" font-size="22">替换此图片即可启用</text>
</svg>
