<svg xmlns="http://www.w3.org/2000/svg" viewBox="0 0 320 320">
  <defs><linearGradient id="gold" x1="0" y1="0" x2="1" y2="1"><stop stop-color="#fff0ad"/><stop offset=".36" stop-color="#bc812d"/><stop offset=".7" stop-color="#6f4316"/><stop offset="1" stop-color="#f2d57b"/></linearGradient></defs>
  <g fill="none" stroke-linecap="round" stroke-linejoin="round">
    <rect x="5" y="5" width="310" height="310" rx="30" stroke="#3d2916" stroke-width="10"/>
    <rect x="14" y="14" width="292" height="292" rx="24" stroke="url(#gold)" stroke-width="7"/>
    <rect x="26" y="26" width="268" height="268" rx="17" stroke="#ffe9a0" stroke-width="2"/>
    <g stroke="url(#gold)" stroke-width="4">
      <path d="M29 83c8-25 9-42 34-54 0 20 12 26 26 31-19 4-26 16-29 29-7-9-17-11-31-6ZM291 83c-8-25-9-42-34-54 0 20-12 26-26 31 19 4 26 16 29 29 7-9 17-11 31-6ZM29 237c8 25 9 42 34 54 0-20 12-26 26-31-19-4-26-16-29-29-7 9-17 11-31 6ZM291 237c-8 25-9 42-34 54 0-20-12-26-26-31 19-4 26-16 29-29 7 9 17 11 31 6Z"/>
      <path d="M83 18h57l20 8 20-8h57M83 302h57l20-8 20 8h57M18 83v57l8 20-8 20v57M302 83v57l-8 20 8 20v57" stroke-width="3"/>
    </g>
    <g fill="#7c201f" stroke="#ffe9a0" stroke-width="3"><path d="m42 42 10-10 10 10-10 10Z"/><path d="m278 42-10-10-10 10 10 10Z"/><path d="m42 278 10 10 10-10-10-10Z"/><path d="m278 278-10 10-10-10 10-10Z"/></g>
  </g>
</svg>
